# xmcd
#
# Track frame offsets:
#	150
#	17427
#	37135
#	53900
#	74193
#	91124
#	105129
#	117948
#	131818
#	143642
#
# Disc length: 2129 seconds
#
# Revision: 0
# Processed by: cddbd v1.5.2PL0 Copyright (c) Steve Scherf et al.
# Submitted via: EasyCDDAExtractor 10.2.0.1
#
DISCID=86084f0a
DTITLE=John Edmonds - Against All Odds
DYEAR=2000
DGENRE=Gospel
TTITLE0=Just To Know You Love Me
TTITLE1=While I'm Standing Here
TTITLE2=One Clear Voice
TTITLE3=We're Sailing On
TTITLE4=Surely Not I
TTITLE5=Sing
TTITLE6=Against All Odds
TTITLE7=That's When He Carries Me
TTITLE8=Treasures In Heaven
TTITLE9=Ninty And Nine
EXTD=
EXTT0=
EXTT1=
EXTT2=
EXTT3=
EXTT4=
EXTT5=
EXTT6=
EXTT7=
EXTT8=
EXTT9=
PLAYORDER=
